<?xml version="1.0" encoding="UTF-8"?>
<svg id="Capa_1" xmlns="http://www.w3.org/2000/svg" version="1.1" viewBox="0 0 239.72 41.38">
  <!-- Generator: Adobe Illustrator 30.0.0, SVG Export Plug-In . SVG Version: 2.1.1 Build 123)  -->
  <g>
    <path d="M213.92,7.1c-9.47,0-17.14,7.68-17.14,17.14s7.68,17.14,17.14,17.14,17.14-7.68,17.14-17.14-7.68-17.14-17.14-17.14ZM213.92,34.86c-5.87,0-10.62-4.76-10.62-10.62s4.76-10.62,10.62-10.62,10.62,4.76,10.62,10.62-4.76,10.62-10.62,10.62Z"/>
    <path d="M195.78,10.93l-28.47,29.64-6.67-.04-.05-32.63,6.72.03v22.94s23.72-24.69,23.72-24.69l4.75,4.75Z"/>
    <path d="M48.03,11.61v-3.71h-6.72v32.69h6.72v-17.14c0-13.02,18.28-13.27,18.28.19v16.95h6.72v-18.6c0-16.46-17.86-18.2-25-10.38Z"/>
    <g>
      <rect x="107.06" width="6.72" height="40.57"/>
      <path d="M96.44,7.1c-9.47,0-17.14,7.68-17.14,17.14s7.68,17.14,17.14,17.14,17.14-7.68,17.14-17.14-7.68-17.14-17.14-17.14ZM96.44,34.86c-5.87,0-10.62-4.76-10.62-10.62s4.76-10.62,10.62-10.62,10.62,4.76,10.62,10.62-4.76,10.62-10.62,10.62Z"/>
    </g>
    <g>
      <rect x="27.77" y="7.89" width="6.72" height="32.68"/>
      <path d="M17.14,7.1C7.68,7.1,0,14.77,0,24.24s7.68,17.14,17.14,17.14,17.14-7.68,17.14-17.14S26.61,7.1,17.14,7.1ZM17.14,34.86c-5.87,0-10.62-4.76-10.62-10.62s4.76-10.62,10.62-10.62,10.62,4.76,10.62,10.62-4.76,10.62-10.62,10.62Z"/>
    </g>
    <g>
      <rect x="121.81" y="21.06" width="30.75" height="5.46"/>
      <path d="M146.53,29.28c-1.8,3.32-5.31,5.58-9.35,5.58-5.87,0-10.62-4.76-10.62-10.62s4.76-10.62,10.62-10.62,10.62,4.76,10.62,10.62c0,.78-.09,1.55-.25,2.28h6.6c.1-.75.17-1.51.17-2.28,0-9.47-7.68-17.14-17.14-17.14s-17.14,7.68-17.14,17.14,7.68,17.14,17.14,17.14c6.45,0,12.07-3.57,14.99-8.84l-5.65-3.26Z"/>
    </g>
  </g>
  <g>
    <path d="M239.41,9.52c-.21-.48-.49-.9-.85-1.26-.36-.36-.79-.65-1.26-.85s-.99-.31-1.54-.31-1.06.1-1.54.31-.9.49-1.26.85c-.36.36-.65.79-.85,1.26-.21.48-.31.99-.31,1.54s.1,1.06.31,1.54c.2.48.49.9.85,1.26.36.36.78.65,1.26.85s.99.31,1.54.31,1.06-.1,1.54-.31.9-.49,1.26-.85c.36-.36.65-.79.85-1.26.2-.48.31-.99.31-1.54s-.1-1.06-.31-1.54ZM238.74,12.8c-.31.52-.73.93-1.25,1.24-.52.31-1.1.47-1.73.47s-1.21-.16-1.74-.47c-.52-.31-.93-.73-1.25-1.24-.31-.52-.47-1.1-.47-1.74s.16-1.21.47-1.73c.31-.52.73-.94,1.25-1.25.52-.31,1.1-.47,1.74-.47s1.21.16,1.73.47c.52.31.94.73,1.25,1.25.31.52.47,1.1.47,1.73s-.16,1.21-.47,1.74Z"/>
    <path d="M236.87,12.94l-.95-1.59h-.7v1.59h-.63v-3.76s1.41,0,1.41,0c.72,0,1.2.42,1.2,1.08,0,.44-.24.81-.63.98l1.03,1.7h-.72ZM235.22,10.79h.69c.41,0,.65-.19.65-.53s-.24-.53-.65-.53h-.69v1.06Z"/>
  </g>
</svg>